<svg width="100" height="100" viewBox="0 0 100 100" fill="none" xmlns="http://www.w3.org/2000/svg">
<path d="M58.2792 68.1451C53.765 69.5801 49.8504 69.4616 46.5355 67.7897C43.2205 66.1177 40.8625 63.0779 39.4614 58.6702L30.9105 31.771L17.1872 36.1335L14.3657 27.2577L28.089 22.8952L23.6265 8.85695L33.3772 5.75732L37.8398 19.7956L57.2511 13.625L60.0726 22.5009L40.6613 28.6714L49.2121 55.5705C50.3062 59.0122 52.5084 60.2068 55.8189 59.1545L69.3616 54.8495L72.1831 63.7253L58.2792 68.1451Z" fill="#7A715A"/>
<path d="M8 76.0963C8 73.2183 8.46831 70.6817 9.40493 68.4866C10.3415 66.3402 11.6232 64.6329 13.25 63.3646C14.9261 62.1451 16.8979 61.4378 19.1655 61.2427V69.1451C17.8345 69.3402 16.75 70.0475 15.912 71.2671C15.1232 72.4866 14.7289 74.0963 14.7289 76.0963V79.2427C14.7289 81.6329 15.2218 83.4378 16.2077 84.6573C17.1937 85.8768 18.5 86.4866 20.1268 86.4866C21.7042 86.4866 22.9366 85.9256 23.8239 84.8036C24.7606 83.7305 25.3768 82.1207 25.6725 79.9744L26.4859 74.7793C27.1761 70.4866 28.4085 67.3158 30.1831 65.2671C32.007 63.2671 34.6937 62.2671 38.243 62.2671C41.9894 62.2671 44.8732 63.4622 46.8944 65.8524C48.9648 68.2915 50 71.8768 50 76.6085V79.389C50 83.5841 49.0141 86.9256 47.0423 89.4134C45.1197 91.95 42.5317 93.389 39.2782 93.7305V85.828C40.4613 85.6329 41.4225 84.9744 42.162 83.8524C42.9014 82.7793 43.2711 81.2914 43.2711 79.389V76.6085C43.2711 74.3158 42.8275 72.6329 41.9401 71.5598C41.1021 70.5354 39.8451 70.0232 38.169 70.0232C36.6901 70.0232 35.581 70.4866 34.8416 71.4134C34.1021 72.3402 33.5845 73.7793 33.2887 75.7305L32.4014 81.0719C31.7606 85.6085 30.4789 88.9256 28.5563 91.0232C26.6831 93.1695 23.9472 94.2427 20.3486 94.2427C16.4542 94.2427 13.4225 92.9744 11.2535 90.4378C9.08451 87.95 8 84.2183 8 79.2427L8 76.0963Z" fill="#5289DB"/>
<path d="M50 75.0963C50 72.2183 50.4683 69.6817 51.4049 67.4866C52.3415 65.3402 53.6232 63.6329 55.25 62.3646C56.9261 61.1451 58.8979 60.4378 61.1655 60.2427V68.1451C59.8345 68.3402 58.75 69.0475 57.912 70.2671C57.1232 71.4866 56.7289 73.0963 56.7289 75.0963V78.2427C56.7289 80.6329 57.2218 82.4378 58.2077 83.6573C59.1937 84.8768 60.5 85.4866 62.1268 85.4866C63.7042 85.4866 64.9366 84.9256 65.8239 83.8036C66.7606 82.7305 67.3768 81.1207 67.6725 78.9744L68.4859 73.7793C69.1761 69.4866 70.4085 66.3158 72.1831 64.2671C74.007 62.2671 76.6937 61.2671 80.243 61.2671C83.9894 61.2671 86.8732 62.4622 88.8944 64.8524C90.9648 67.2915 92 70.8768 92 75.6085V78.389C92 82.5841 91.0141 85.9256 89.0423 88.4134C87.1197 90.95 84.5317 92.389 81.2782 92.7305V84.828C82.4613 84.6329 83.4225 83.9744 84.162 82.8524C84.9014 81.7793 85.2711 80.2914 85.2711 78.389V75.6085C85.2711 73.3158 84.8275 71.6329 83.9401 70.5598C83.1021 69.5354 81.8451 69.0232 80.169 69.0232C78.6901 69.0232 77.581 69.4866 76.8416 70.4134C76.1021 71.3402 75.5845 72.7793 75.2887 74.7305L74.4014 80.0719C73.7606 84.6085 72.4789 87.9256 70.5563 90.0232C68.6831 92.1695 65.9472 93.2427 62.3486 93.2427C58.4542 93.2427 55.4225 91.9744 53.2535 89.4378C51.0845 86.95 50 83.2183 50 78.2427V75.0963Z" fill="#5289DB"/>
</svg>
