<svg width="320" height="100" viewBox="0 0 320 100" fill="none" xmlns="http://www.w3.org/2000/svg">
<path d="M57.1556 68.1451C52.6414 69.5801 48.7268 69.4616 45.4119 67.7897C42.097 66.1177 39.7389 63.0779 38.3378 58.6702L29.7869 31.771L16.0636 36.1335L13.2422 27.2577L26.9655 22.8952L22.5029 8.85695L32.2537 5.75732L36.7162 19.7956L56.1275 13.625L58.949 22.5009L39.5377 28.6714L48.0886 55.5705C49.1826 59.0122 51.3848 60.2068 54.6953 59.1545L68.238 54.8495L71.0595 63.7253L57.1556 68.1451Z" fill="#7A715A"/>
<path d="M6.87642 76.0963C6.87642 73.2183 7.34473 70.6817 8.28135 68.4866C9.21797 66.3402 10.4997 64.6329 12.1264 63.3646C13.8025 62.1451 15.7743 61.4378 18.0419 61.2427V69.1451C16.7109 69.3402 15.6264 70.0475 14.7884 71.2671C13.9997 72.4866 13.6053 74.0963 13.6053 76.0963V79.2427C13.6053 81.6329 14.0982 83.4378 15.0842 84.6573C16.0701 85.8768 17.3764 86.4866 19.0032 86.4866C20.5806 86.4866 21.813 85.9256 22.7004 84.8036C23.637 83.7305 24.2532 82.1207 24.549 79.9744L25.3623 74.7793C26.0525 70.4866 27.2849 67.3158 29.0595 65.2671C30.8835 63.2671 33.5701 62.2671 37.1194 62.2671C40.8659 62.2671 43.7497 63.4622 45.7708 65.8524C47.8412 68.2915 48.8764 71.8768 48.8764 76.6085V79.389C48.8764 83.5841 47.8905 86.9256 45.9187 89.4134C43.9961 91.95 41.4081 93.389 38.1546 93.7305V85.828C39.3377 85.6329 40.299 84.9744 41.0384 83.8524C41.7778 82.7793 42.1475 81.2914 42.1475 79.389V76.6085C42.1475 74.3158 41.7039 72.6329 40.8166 71.5598C39.9785 70.5354 38.7215 70.0232 37.0454 70.0232C35.5666 70.0232 34.4574 70.4866 33.718 71.4134C32.9785 72.3402 32.4609 73.7793 32.1652 75.7305L31.2778 81.0719C30.637 85.6085 29.3553 88.9256 27.4328 91.0232C25.5595 93.1695 22.8236 94.2427 19.225 94.2427C15.3306 94.2427 12.299 92.9744 10.1299 90.4378C7.96093 87.95 6.87642 84.2183 6.87642 79.2427L6.87642 76.0963Z" fill="#5289DB"/>
<path d="M48.8764 75.0963C48.8764 72.2183 49.3447 69.6817 50.2813 67.4866C51.218 65.3402 52.4997 63.6329 54.1264 62.3646C55.8025 61.1451 57.7743 60.4378 60.0419 60.2427V68.1451C58.7109 68.3402 57.6264 69.0475 56.7884 70.2671C55.9997 71.4866 55.6053 73.0963 55.6053 75.0963V78.2427C55.6053 80.6329 56.0982 82.4378 57.0842 83.6573C58.0701 84.8768 59.3764 85.4866 61.0032 85.4866C62.5806 85.4866 63.813 84.9256 64.7004 83.8036C65.637 82.7305 66.2532 81.1207 66.549 78.9744L67.3623 73.7793C68.0525 69.4866 69.2849 66.3158 71.0595 64.2671C72.8835 62.2671 75.5701 61.2671 79.1194 61.2671C82.8659 61.2671 85.7497 62.4622 87.7708 64.8524C89.8412 67.2915 90.8764 70.8768 90.8764 75.6085V78.389C90.8764 82.5841 89.8905 85.9256 87.9187 88.4134C85.9961 90.95 83.4081 92.389 80.1546 92.7305V84.828C81.3377 84.6329 82.299 83.9744 83.0384 82.8524C83.7778 81.7793 84.1475 80.2914 84.1475 78.389V75.6085C84.1475 73.3158 83.7039 71.6329 82.8166 70.5598C81.9785 69.5354 80.7215 69.0232 79.0454 69.0232C77.5666 69.0232 76.4574 69.4866 75.718 70.4134C74.9785 71.3402 74.4609 72.7793 74.1652 74.7305L73.2778 80.0719C72.637 84.6085 71.3553 87.9256 69.4328 90.0232C67.5595 92.1695 64.8236 93.2427 61.225 93.2427C57.3306 93.2427 54.299 91.9744 52.1299 89.4378C49.9609 86.95 48.8764 83.2183 48.8764 78.2427V75.0963Z" fill="#5289DB"/>
<path d="M107.393 41.8438V47.9801H90.8764V41.8438H107.393ZM94.3366 35.571H102.672V59.7926C102.672 60.304 102.751 60.7188 102.911 61.0369C103.081 61.3438 103.325 61.5653 103.643 61.7017C103.962 61.8267 104.342 61.8892 104.786 61.8892C105.104 61.8892 105.439 61.8608 105.791 61.804C106.155 61.7358 106.428 61.679 106.609 61.6335L107.871 67.6506C107.473 67.7642 106.911 67.9063 106.183 68.0767C105.467 68.2472 104.609 68.3551 103.609 68.4006C101.655 68.4915 99.9787 68.2642 98.581 67.7188C97.1946 67.1619 96.1321 66.2983 95.3935 65.1278C94.6662 63.9574 94.3139 62.4858 94.3366 60.7131V35.571Z" fill="black"/>
<path d="M109.246 68.0256V41.8438H117.343V46.6165H117.616C118.093 44.8892 118.871 43.6051 119.951 42.7642C121.03 41.9119 122.286 41.4858 123.718 41.4858C124.104 41.4858 124.502 41.5142 124.911 41.571C125.32 41.6165 125.701 41.6903 126.053 41.7926V49.0369C125.655 48.9006 125.133 48.7926 124.485 48.7131C123.849 48.6335 123.28 48.5938 122.78 48.5938C121.792 48.5938 120.9 48.8153 120.104 49.2585C119.32 49.6903 118.701 50.2983 118.246 51.0824C117.803 51.8551 117.582 52.7642 117.582 53.8097V68.0256H109.246Z" fill="black"/>
<path d="M133.446 68.4688C131.775 68.4688 130.292 68.1903 128.997 67.6335C127.713 67.0653 126.696 66.2131 125.946 65.0767C125.207 63.929 124.838 62.4915 124.838 60.7642C124.838 59.3097 125.093 58.0824 125.605 57.0824C126.116 56.0824 126.821 55.2699 127.718 54.6449C128.616 54.0199 129.65 53.5483 130.821 53.2301C131.991 52.9006 133.241 52.679 134.571 52.5653C136.059 52.429 137.258 52.2869 138.167 52.1392C139.076 51.9801 139.736 51.7585 140.145 51.4744C140.565 51.179 140.775 50.7642 140.775 50.2301V50.1449C140.775 49.2699 140.474 48.5938 139.872 48.1165C139.27 47.6392 138.457 47.4006 137.434 47.4006C136.332 47.4006 135.446 47.6392 134.775 48.1165C134.105 48.5938 133.679 49.2528 133.497 50.0938L125.809 49.821C126.037 48.2301 126.622 46.8097 127.565 45.5597C128.52 44.2983 129.826 43.3097 131.486 42.5938C133.156 41.8665 135.162 41.5028 137.503 41.5028C139.173 41.5028 140.713 41.7017 142.122 42.0994C143.531 42.4858 144.758 43.054 145.804 43.804C146.849 44.5426 147.656 45.4517 148.224 46.5313C148.804 47.6108 149.093 48.8438 149.093 50.2301V68.0256H141.253V64.3778H141.048C140.582 65.2642 139.986 66.0142 139.258 66.6278C138.542 67.2415 137.696 67.7017 136.718 68.0085C135.753 68.3153 134.662 68.4688 133.446 68.4688ZM136.02 63.0142C136.917 63.0142 137.724 62.8324 138.44 62.4688C139.167 62.1051 139.747 61.6051 140.179 60.9688C140.611 60.321 140.826 59.571 140.826 58.7188V56.2301C140.588 56.3551 140.298 56.4688 139.957 56.571C139.628 56.6733 139.264 56.7699 138.866 56.8608C138.468 56.9517 138.059 57.0313 137.639 57.0994C137.218 57.1676 136.815 57.2301 136.429 57.2869C135.645 57.4119 134.974 57.6051 134.417 57.8665C133.872 58.1278 133.451 58.4688 133.156 58.8892C132.872 59.2983 132.73 59.7869 132.73 60.3551C132.73 61.2188 133.037 61.8778 133.65 62.3324C134.275 62.7869 135.065 63.0142 136.02 63.0142Z" fill="black"/>
<path d="M176.25 41.8438L167.267 68.0256H157.722L148.756 41.8438H157.534L162.358 59.8778H162.631L167.472 41.8438H176.25Z" fill="black"/>
<path d="M188.441 68.5199C185.703 68.5199 183.339 67.9801 181.35 66.9006C179.373 65.8097 177.85 64.2585 176.782 62.2472C175.725 60.2244 175.197 57.821 175.197 55.0369C175.197 52.3324 175.731 49.9688 176.799 47.946C177.867 45.9119 179.373 44.3324 181.316 43.2074C183.259 42.071 185.549 41.5028 188.186 41.5028C190.049 41.5028 191.754 41.7926 193.299 42.3722C194.845 42.9517 196.18 43.8097 197.305 44.946C198.43 46.0824 199.305 47.4858 199.93 49.1563C200.555 50.8153 200.867 52.7188 200.867 54.8665V56.946H178.112V52.1051H193.112C193.1 51.2188 192.89 50.429 192.481 49.7358C192.072 49.0426 191.509 48.5028 190.793 48.1165C190.089 47.7188 189.276 47.5199 188.356 47.5199C187.424 47.5199 186.589 47.7301 185.85 48.1506C185.112 48.5597 184.526 49.1222 184.095 49.8381C183.663 50.5426 183.436 51.3438 183.413 52.2415V57.1676C183.413 58.2358 183.623 59.1733 184.043 59.9801C184.464 60.7756 185.061 61.3949 185.833 61.8381C186.606 62.2813 187.526 62.5028 188.595 62.5028C189.333 62.5028 190.004 62.4006 190.606 62.196C191.208 61.9915 191.725 61.6903 192.157 61.2926C192.589 60.8949 192.913 60.4063 193.129 59.8267L200.782 60.0483C200.464 61.7642 199.765 63.2585 198.686 64.5313C197.617 65.7926 196.214 66.7756 194.475 67.4801C192.737 68.1733 190.725 68.5199 188.441 68.5199Z" fill="black"/>
<path d="M211.06 33.1165V68.0256H202.724V33.1165H211.06Z" fill="black"/>
<path d="M244.736 49.8381L237.082 50.0426C237.003 49.4972 236.787 49.0142 236.434 48.5938C236.082 48.1619 235.622 47.8267 235.054 47.5881C234.497 47.3381 233.849 47.2131 233.111 47.2131C232.145 47.2131 231.321 47.4063 230.639 47.7926C229.968 48.179 229.639 48.7017 229.65 49.3608C229.639 49.8722 229.843 50.3153 230.264 50.6903C230.696 51.0653 231.463 51.3665 232.565 51.5938L237.611 52.5483C240.224 53.0483 242.167 53.8778 243.44 55.0369C244.724 56.196 245.372 57.7301 245.383 59.6392C245.372 61.4347 244.838 62.9972 243.781 64.3267C242.736 65.6563 241.304 66.6903 239.486 67.429C237.667 68.1563 235.588 68.5199 233.247 68.5199C229.508 68.5199 226.559 67.7528 224.4 66.2188C222.253 64.6733 221.025 62.6051 220.718 60.0142L228.951 59.8097C229.133 60.7642 229.605 61.4915 230.366 61.9915C231.128 62.4915 232.099 62.7415 233.281 62.7415C234.349 62.7415 235.218 62.5426 235.889 62.1449C236.559 61.7472 236.9 61.2188 236.912 60.5597C236.9 59.9688 236.639 59.4972 236.128 59.1449C235.616 58.7813 234.815 58.4972 233.724 58.2926L229.156 57.4233C226.531 56.946 224.576 56.0653 223.292 54.7813C222.008 53.4858 221.372 51.8381 221.383 49.8381C221.372 48.0881 221.838 46.5938 222.781 45.3551C223.724 44.1051 225.065 43.1506 226.804 42.4915C228.542 41.8324 230.593 41.5028 232.957 41.5028C236.503 41.5028 239.298 42.2472 241.343 43.7358C243.389 45.2131 244.52 47.2472 244.736 49.8381Z" fill="black"/>
<path d="M254.468 68.4688C252.797 68.4688 251.314 68.1903 250.019 67.6335C248.735 67.0653 247.718 66.2131 246.968 65.0767C246.229 63.929 245.86 62.4915 245.86 60.7642C245.86 59.3097 246.115 58.0824 246.627 57.0824C247.138 56.0824 247.843 55.2699 248.74 54.6449C249.638 54.0199 250.672 53.5483 251.843 53.2301C253.013 52.9006 254.263 52.679 255.593 52.5653C257.081 52.429 258.28 52.2869 259.189 52.1392C260.098 51.9801 260.757 51.7585 261.166 51.4744C261.587 51.179 261.797 50.7642 261.797 50.2301V50.1449C261.797 49.2699 261.496 48.5938 260.894 48.1165C260.291 47.6392 259.479 47.4006 258.456 47.4006C257.354 47.4006 256.468 47.6392 255.797 48.1165C255.127 48.5938 254.701 49.2528 254.519 50.0938L246.831 49.821C247.059 48.2301 247.644 46.8097 248.587 45.5597C249.541 44.2983 250.848 43.3097 252.507 42.5938C254.178 41.8665 256.184 41.5028 258.524 41.5028C260.195 41.5028 261.735 41.7017 263.144 42.0994C264.553 42.4858 265.78 43.054 266.826 43.804C267.871 44.5426 268.678 45.4517 269.246 46.5313C269.826 47.6108 270.115 48.8438 270.115 50.2301V68.0256H262.274V64.3778H262.07C261.604 65.2642 261.007 66.0142 260.28 66.6278C259.564 67.2415 258.718 67.7017 257.74 68.0085C256.774 68.3153 255.684 68.4688 254.468 68.4688ZM257.041 63.0142C257.939 63.0142 258.746 62.8324 259.462 62.4688C260.189 62.1051 260.769 61.6051 261.201 60.9688C261.632 60.321 261.848 59.571 261.848 58.7188V56.2301C261.61 56.3551 261.32 56.4688 260.979 56.571C260.649 56.6733 260.286 56.7699 259.888 56.8608C259.49 56.9517 259.081 57.0313 258.661 57.0994C258.24 57.1676 257.837 57.2301 257.451 57.2869C256.666 57.4119 255.996 57.6051 255.439 57.8665C254.894 58.1278 254.473 58.4688 254.178 58.8892C253.894 59.2983 253.752 59.7869 253.752 60.3551C253.752 61.2188 254.059 61.8778 254.672 62.3324C255.297 62.7869 256.087 63.0142 257.041 63.0142Z" fill="black"/>
<path d="M287.693 41.8438V47.9801H270.852V41.8438H287.693ZM274.363 68.0256V40.5142C274.363 38.4915 274.744 36.8153 275.505 35.4858C276.266 34.1449 277.323 33.1449 278.676 32.4858C280.028 31.8153 281.59 31.4801 283.363 31.4801C284.522 31.4801 285.613 31.571 286.636 31.7528C287.67 31.9233 288.437 32.0767 288.937 32.2131L287.607 38.3153C287.301 38.2131 286.926 38.1278 286.482 38.0597C286.051 37.9915 285.641 37.9574 285.255 37.9574C284.278 37.9574 283.607 38.1733 283.244 38.6051C282.88 39.0369 282.698 39.6278 282.698 40.3778V68.0256H274.363Z" fill="black"/>
<path d="M300.697 68.5199C297.959 68.5199 295.595 67.9801 293.607 66.9006C291.629 65.8097 290.107 64.2585 289.038 62.2472C287.982 60.2244 287.453 57.821 287.453 55.0369C287.453 52.3324 287.987 49.9688 289.055 47.946C290.124 45.9119 291.629 44.3324 293.572 43.2074C295.516 42.071 297.805 41.5028 300.442 41.5028C302.305 41.5028 304.01 41.7926 305.555 42.3722C307.101 42.9517 308.436 43.8097 309.561 44.946C310.686 46.0824 311.561 47.4858 312.186 49.1563C312.811 50.8153 313.124 52.7188 313.124 54.8665V56.946H290.368V52.1051H305.368C305.357 51.2188 305.146 50.429 304.737 49.7358C304.328 49.0426 303.766 48.5028 303.05 48.1165C302.345 47.7188 301.533 47.5199 300.612 47.5199C299.68 47.5199 298.845 47.7301 298.107 48.1506C297.368 48.5597 296.783 49.1222 296.351 49.8381C295.919 50.5426 295.692 51.3438 295.669 52.2415V57.1676C295.669 58.2358 295.879 59.1733 296.3 59.9801C296.72 60.7756 297.317 61.3949 298.089 61.8381C298.862 62.2813 299.783 62.5028 300.851 62.5028C301.589 62.5028 302.26 62.4006 302.862 62.196C303.464 61.9915 303.982 61.6903 304.413 61.2926C304.845 60.8949 305.169 60.4063 305.385 59.8267L313.038 60.0483C312.72 61.7642 312.021 63.2585 310.942 64.5313C309.874 65.7926 308.47 66.7756 306.732 67.4801C304.993 68.1733 302.982 68.5199 300.697 68.5199Z" fill="black"/>
</svg>
